<svg version="1" xmlns="http://www.w3.org/2000/svg" width="933.333" height="933.333" viewBox="0 0 700.000000 700.000000"><path d="M264.8.5c-.1.1-3.7.6-7.8.9-15.3 1.4-29.5 3.9-45 8.1-5.2 1.4-10.2 2.7-11 2.9-11.9 3.2-43.3 16.5-53 22.5-2.8 1.7-5.3 3.1-5.6 3.1-1.3 0-26.6 17.2-33.9 23-11 8.8-13.3 10.9-25.5 23.1-11.7 11.7-13 13.1-21.9 24.4C40 135 21.6 170 12.4 201c-1.9 6.3-7.3 28.5-7.8 31.8-.3 2.2-.7 5.1-1 6.4-.3 1.2-.8 4.3-1 6.8-.3 2.5-.9 7.4-1.3 11-1.5 12.8-.8 54 1.1 65 .3 1.4.7 4.3 1.1 6.5 3.8 26.6 13.3 56.3 26.2 82 14.4 28.8 29.7 50.1 54.8 76 3.3 3.3 20.8 18.8 24.4 21.5 22.2 16.7 48.4 32.1 66.1 38.8 16.2 6.2 20.7 7.8 29.5 10.4 10.3 3 29.1 7.2 36.7 8.3 9.3 1.2 11.5 1.5 18.3 2.2 9.2.9 39.8.9 50-.1 26.7-2.5 60.5-10.6 78.2-18.7 2.4-1 4.6-1.9 5.1-1.9 1.3 0 24.9-11.8 32.6-16.2 3.9-2.3 11.5-7 16.8-10.6l9.8-6.4 93.1 93.1 93.1 93.1 30.9-31 30.9-31-93.1-93-93.1-93 6.5-9.8c11.3-17 27.7-48.1 27.7-52.5 0-.7.4-1.7.9-2.2 3-3.2 13.6-41.3 16.2-58 2.7-18.3 3.3-26.4 3.3-45.5 0-14.4-1.1-33.5-1.9-35-.2-.3-.6-3.4-1-7s-.8-6.7-1-7c-.2-.3-.6-2.5-1-5s-.8-4.7-1-5.1c-.2-.3-.7-2.1-1-4-1.9-9.9-7.9-29.1-13.4-42.7-16.5-41-44.8-80.6-77.1-108.2-3.6-3-6.7-5.7-7-6-1.8-2-21.1-15.8-29.2-20.9-12-7.5-31.9-17.6-45.3-22.9C380 16.4 359.3 9.7 354 8.6c-1.4-.3-5.4-1.2-9-2-3.6-.8-8.2-1.7-10.4-2-2.1-.4-4.1-.8-4.5-1-.3-.2-3.7-.7-7.4-1.1-3.7-.3-7.8-.9-9-1.1-2.4-.6-48.3-1.4-48.9-.9zm37.7 87.9c30.8 2.4 65.1 14.7 92 32.9 5 3.4 9.2 6.4 9.5 6.7.3.3 3.4 2.9 7 5.9 22.5 18.8 40.8 43 52.8 70.1 1.8 4.1 3.8 8.4 4.3 9.5 4.4 9.6 10.4 35 12.4 53.3.5 4.4.6 29.5.1 33.7-.2 1.6-.7 5.9-1.1 9.5-.4 3.6-.8 6.7-1 7-.2.3-.6 2.4-1 4.8-4.3 29.2-24.3 69.8-45.6 92.7-2.1 2.2-4.8 5.1-6.1 6.5-2.8 3-14 13.4-18.8 17.4-7 5.7-24.3 16.6-35.1 22.1-16.5 8.3-40.6 16-56.4 18.1-2.2.3-5.6.9-7.5 1.3-1.9.4-11.8.8-22 .9-16.8 0-31.9-1.4-43.5-4.1-1.1-.3-3.3-.8-5-1.2-42.7-9.9-84.2-37.7-111.4-74.4-11.3-15.3-19.7-30.9-26.5-49.3-3.6-9.8-8-25.9-9.1-33.3-.3-2.3-.7-5.1-1-6.3-1.7-9.1-2.3-29.8-1.2-44.2 5-66.3 46.3-128.1 105.7-158.3 19.9-10.1 28.1-13 51.5-18.3 4.4-1.1 14.4-2.4 21.5-3 4.1-.4 7.6-.7 7.7-.8.5-.4 19.6.2 27.8.8z"/></svg>